<svg xmlns="http://www.w3.org/2000/svg" viewBox="0 0 512 512"><path d="M331 215A107.5 107.5 0 10223.5 107.5 107.62 107.62 0 00331 215zm-20-65h12.5V74.11l-1.27 1.12A7.5 7.5 0 11312.31 64L326 51.87A7.5 7.5 0 01338.5 57.5V150H351a7.5 7.5 0 010 15H311a7.5 7.5 0 010-15zM411 367H101a27.54 27.54 0 00-27.5 27.5V427h365V394.5A27.54 27.54 0 00411 367zM256 512a77.6 77.6 0 0077.13-70H178.87A77.6 77.6 0 00256 512z"/><path d="M403.55,322.54a259.85,259.85,0,0,1-40.3-96.86A122.53,122.53,0,0,1,210.76,84a102.62,102.62,0,0,0-57.26,92,259.89,259.89,0,0,1-45,146.54A57.41,57.41,0,0,0,98.58,352H413.42A57.41,57.41,0,0,0,403.55,322.54Z"/></svg>